<svg width="32" height="32" viewBox="0 0 32 32" fill="none" xmlns="http://www.w3.org/2000/svg">
<rect x="4" y="10" width="24" height="12" rx="2" fill="#C2CFE0"/>
<path d="M16.9 24.7999L14.1 23.3999L13.4 24.0999L14.8 26.1999L16.2 26.8999L17.8488 28.5799H21.8L22.5 28.2999L23.9 27.5999L24.6 26.1999V21.2999L23.9 20.5999H23.2L22.5 19.8999H21.1L20.4 19.1999L19.7 19.8999L19 19.1999V16.3999V15.6999L18.3 15.4199L17.6 15.6999V24.0999L16.9 24.7999Z" fill="#A0AEC1"/>
<path d="M23.6669 20.25C23.4515 20.25 23.2496 20.3087 23.0761 20.4109C23.0109 19.8287 22.5159 19.375 21.9169 19.375C21.632 19.375 21.3703 19.4781 21.1669 19.6499C20.9627 19.3106 20.591 19.0833 20.1669 19.0833C19.9547 19.0833 19.7553 19.1403 19.5835 19.24V16.1667C19.5835 15.5232 19.0603 15 18.4169 15C17.7734 15 17.2502 15.5232 17.2502 16.1667V23.9727C17.2502 24.1197 17.1533 24.1952 17.1118 24.2208C17.0702 24.2465 16.9582 24.2992 16.8281 24.2337L14.955 23.2971C14.7844 23.2117 14.5933 23.1667 14.4025 23.1667C13.7211 23.1667 13.1669 23.721 13.1669 24.4023V24.625C13.1669 24.7059 13.2005 24.7831 13.2594 24.8383L16.6259 27.9803C17.3305 28.6377 18.2494 29 19.213 29H21.0418C23.1325 29 24.8335 27.299 24.8335 25.2083V21.4167C24.8335 20.7732 24.3103 20.25 23.6669 20.25ZM24.2502 25.2083C24.2502 26.9774 22.811 28.4166 21.0419 28.4166H19.213C18.3978 28.4166 17.6202 28.1102 17.0241 27.5536L13.7502 24.4983V24.4023C13.7502 24.0425 14.0427 23.75 14.4025 23.75C14.503 23.75 14.6041 23.7739 14.6941 23.8189L16.5672 24.7555C16.8403 24.8924 17.1588 24.8774 17.4185 24.7173C17.6783 24.5566 17.8335 24.2784 17.8335 23.9727V16.1667C17.8335 15.8451 18.0953 15.5834 18.4168 15.5834C18.7384 15.5834 19.0002 15.8451 19.0002 16.1667V20.5417C19.0002 20.7029 19.1306 20.8334 19.2918 20.8334C19.4531 20.8334 19.5835 20.7029 19.5835 20.5417V20.25C19.5835 19.9284 19.8453 19.6667 20.1668 19.6667C20.4884 19.6667 20.7502 19.9284 20.7502 20.25V20.5417C20.7502 20.5423 20.7502 20.5428 20.7502 20.5434V20.5437C20.7513 20.7037 20.8815 20.8334 21.0418 20.8334C21.2031 20.8334 21.3335 20.7029 21.3335 20.5417V20.5371C21.3358 20.2178 21.5973 19.9583 21.9168 19.9583C22.2384 19.9583 22.5002 20.2201 22.5002 20.5416V21.4166C22.5002 21.5779 22.6306 21.7083 22.7918 21.7083C22.9531 21.7083 23.0835 21.5779 23.0835 21.4166C23.0835 21.0951 23.3453 20.8333 23.6668 20.8333C23.9884 20.8333 24.2502 21.0951 24.2502 21.4167V25.2083Z" fill="#A0AEC1"/>
</svg>
